HIERARCHY
ROOT Hips
{
  OFFSET -32.5998 29.0326 120.673
  CHANNELS 6 Xposition Yposition Zposition Zrotation Xrotation Yrotation
  JOINT LeftUpLeg
  {
    OFFSET 8.64259 1.95398 -2.38835
    CHANNELS 3 Zrotation Xrotation Yrotation
    JOINT LeftLeg
    {
      OFFSET 43.7702 0 0
      CHANNELS 3 Zrotation Xrotation Yrotation
      JOINT LeftFoot
      {
        OFFSET 40.6238 0 0
        CHANNELS 3 Zrotation Xrotation Yrotation
        JOINT LeftToeBase
        {
          OFFSET 12.7242 0 0
          CHANNELS 3 Zrotation Xrotation Yrotation
          End Site
          {
            OFFSET 0 0 0
          }
        }
      }
    }
  }
  JOINT RightUpLeg
  {
    OFFSET -8.2249 1.95398 -2.59336
    CHANNELS 3 Zrotation Xrotation Yrotation
    JOINT RightLeg
    {
      OFFSET 43.5653 0 0
      CHANNELS 3 Zrotation Xrotation Yrotation
      JOINT RightFoot
      {
        OFFSET 40.6238 0 0
        CHANNELS 3 Zrotation Xrotation Yrotation
        JOINT RightToeBase
        {
          OFFSET 12.7242 0 0
          CHANNELS 3 Zrotation Xrotation Yrotation
          End Site
          {
            OFFSET 0 0 0
          }
        }
      }
    }
  }
  JOINT Spine
  {
    OFFSET 0.165834 0.87714 6.61349
    CHANNELS 3 Zrotation Xrotation Yrotation
    JOINT Spine1
    {
      OFFSET 7.38963 1.71661e-005 0
      CHANNELS 3 Zrotation Xrotation Yrotation
      JOINT Spine2
      {
        OFFSET 11.9445 1.14441e-005 0
        CHANNELS 3 Zrotation Xrotation Yrotation
        JOINT Spine3
        {
          OFFSET 14.7254 4.19617e-005 0
          CHANNELS 3 Zrotation Xrotation Yrotation
          JOINT Spine4
          {
            OFFSET 10.9679 0 0
            CHANNELS 3 Zrotation Xrotation Yrotation
            JOINT RightShoulder
            {
              OFFSET 2.46616 -1.6653 3.69651
              CHANNELS 3 Zrotation Xrotation Yrotation
              JOINT RightArm
              {
                OFFSET 13.0012 0 0
                CHANNELS 3 Zrotation Xrotation Yrotation
                JOINT RightForeArm
                {
                  OFFSET 28.7848 1.62311e-005 0
                  CHANNELS 3 Zrotation Xrotation Yrotation
                  JOINT RightHand
                  {
                    OFFSET 26.5688 1.62095e-005 0
                    CHANNELS 3 Zrotation Xrotation Yrotation
                    End Site
                    {
                      OFFSET 0 0 0
                    }
                  }
                }
              }
            }
            JOINT LeftShoulder
            {
              OFFSET 2.38034 -1.29275 -3.7523
              CHANNELS 3 Zrotation Xrotation Yrotation
              JOINT LeftArm
              {
                OFFSET 16.3182 6.07031e-005 0
                CHANNELS 3 Zrotation Xrotation Yrotation
                JOINT LeftForeArm
                {
                  OFFSET 27.0901 0 0
                  CHANNELS 3 Zrotation Xrotation Yrotation
                  JOINT LeftHand
                  {
                    OFFSET 24.5451 1.51738e-005 0
                    CHANNELS 3 Zrotation Xrotation Yrotation
                    End Site
                    {
                      OFFSET 0 0 0
                    }
                  }
                }
              }
            }
            JOINT Neck
            {
              OFFSET 5.0226 -0.0266342 0
              CHANNELS 3 Zrotation Xrotation Yrotation
              JOINT Head
              {
                OFFSET 6.69364 2.86102e-005 0
                CHANNELS 3 Zrotation Xrotation Yrotation
                End Site
                {
                  OFFSET 0 0 0
                }
              }
            }
          }
        }
      }
    }
  }
}
MOTION
Frames:	10
Frame Time:	0.0416667
7.36629 100.843 27.2584 -141.356 -83.8274 -141.834 -173.668 -4.45801 89.5107 -11.1603 7.13292 0.0481761 70.97 6.29708 0.101893 17.8781 -7.85738 5.89816 171.872 -3.06438 87.7678 -13.9329 -12.6883 -0.387332 68.8629 -5.31689 1.79568 27.1516 -0.106174 3.23061 0.12405 7.42501 -90.052 12.024 0.222146 -0.12801 0.353057 0.216298 -0.13768 -22.1822 0.250346 -0.0553302 -2.1696 0.250344 -0.0553382 91.6941 -28.6058 -103.861 43.1029 -25.1977 -9.09617 -14.0928 -18.3993 -25.6898 -11.6105 -0.221328 -3.07563 -86.2648 -48.9608 84.1735 -24.2153 32.0561 -13.5264 7.75135 -1.82365 -13.7632 -0.860333 -0.0208736 0.904271 8.95317 0.152494 -1.06356 -11.5455 0.224439 2.19105 
7.36437 100.835 27.2517 -139.926 -83.767 -140.356 -173.886 -4.40623 89.3647 -11.4155 6.33687 0.318414 71.9705 6.49371 -1.50182 16.4883 -10.4255 9.04815 172.077 -2.98454 87.8369 -13.8872 -14.1854 -0.586681 68.1902 -5.00609 1.2962 27.1745 0.0844405 2.45908 0.212993 7.40723 -90.1084 12.0599 0.372266 -0.256903 0.388928 0.360599 -0.27305 -22.1466 0.432271 -0.133148 -2.13393 0.432268 -0.133154 92.0954 -28.0872 -103.217 43.1923 -25.4294 -8.29091 -15.2836 -19.8155 -27.3794 -12.14 -0.360337 -1.77459 -86.9032 -49.8305 83.3446 -23.2894 32.3305 -14.0392 7.44149 -2.12572 -13.0762 -0.0897618 0.016555 1.06256 8.28994 0.131443 -0.368259 -10.606 0.107578 1.58719 
7.36564 100.825 27.1954 -134.885 -83.5901 -135.069 -173.699 -4.05227 89.5929 -11.5933 6.01226 0.17559 72.2261 6.55072 -1.37545 16.6192 -10.4517 9.21132 172.421 -2.77514 88.1944 -13.7398 -14.3305 -0.722992 68.2514 -5.2123 0.798403 26.5187 -0.0122699 3.86354 0.32217 7.37647 -90.1669 12.1219 0.561503 -0.395137 0.451014 0.543569 -0.419479 -22.085 0.654307 -0.208112 -2.07231 0.654295 -0.208116 92.4101 -27.7881 -102.668 43.4983 -24.9359 -8.87158 -15.0139 -20.7512 -26.1017 -10.9748 -0.384838 -1.1563 -87.3145 -50.1702 82.7822 -23.191 31.5568 -14.2547 7.6214 -1.71428 -12.3568 2.03604 0.131014 1.34071 7.85948 -0.152077 -0.387963 -10.2422 -0.196058 2.12417 
7.38728 100.839 27.0912 -135.405 -83.6289 -135.731 -173.697 -3.99291 89.4917 -11.6555 6.1794 0.096463 72.1431 6.51098 -1.29 16.3854 -10.2113 8.58266 172.35 -2.6959 88.0526 -13.7504 -14.3573 -0.728156 68.2314 -5.18441 0.959979 26.7347 0.0583204 3.26136 0.306562 7.38017 -90.1611 12.1144 0.533327 -0.380243 0.443518 0.516067 -0.403354 -22.0923 0.622938 -0.202376 -2.0797 0.622941 -0.202383 92.3417 -27.6949 -102.84 43.4719 -25.0972 -8.78166 -14.9857 -20.4318 -26.2747 -10.9214 -0.383526 -1.14235 -87.2899 -50.3024 82.8417 -22.9153 31.0557 -14.1867 7.97931 -1.22339 -12.3178 5.5235 0.41922 3.00446 8.10182 -0.0154137 -0.0315729 -10.7978 -0.111956 1.5939 
7.41773 100.865 27.0582 -135.399 -83.5085 -135.757 -173.744 -4.22665 89.4178 -11.3293 6.14879 0.116942 71.9805 6.5299 -1.10385 16.3029 -10.2684 8.60073 172.436 -2.58922 88.04 -14.1719 -14.0914 -0.861602 67.9385 -4.69969 1.94811 27.626 -0.0128766 2.08188 0.316252 7.38822 -90.1697 12.0984 0.548581 -0.398892 0.427501 0.530493 -0.422658 -22.1084 0.6431 -0.21557 -2.09576 0.643092 -0.215589 92.3381 -27.5158 -102.909 43.6572 -25.1465 -8.67893 -14.7976 -20.023 -26.1407 -10.6039 -0.355904 -1.33186 -87.3599 -50.345 82.7439 -22.7615 30.3172 -14.2653 8.32812 -0.496724 -11.9044 9.91722 0.877738 4.60552 8.2743 -0.00849952 0.0782618 -11.1456 -0.121293 1.41921 
7.49087 100.853 27.0317 -135.504 -83.6166 -135.88 -173.833 -4.01382 89.3346 -11.6327 5.95569 0.194401 72.2256 6.53935 -1.50829 16.1512 -10.3291 8.55944 172.311 -2.59561 87.9672 -13.9748 -14.4221 -0.757955 68.1495 -5.06568 0.870369 27.5871 -0.137 2.63206 0.284619 7.3517 -90.1573 12.1713 0.491336 -0.368459 0.500369 0.474646 -0.389738 -22.0354 0.579356 -0.20376 -2.02273 0.579358 -0.203764 92.1771 -27.5109 -103.245 43.884 -25.1114 -8.32392 -14.7182 -19.9576 -26.1146 -11.3167 -0.338907 -1.76366 -87.1774 -49.9565 82.9525 -23.4775 28.8678 -13.7588 8.9581 0.825836 -11.7169 14.3313 1.4948 6.39662 7.8848 0.00105493 -0.240814 -11.0062 -0.0658448 1.75463 
7.46757 100.855 27.0331 -133.417 -83.5622 -133.485 -173.647 -3.77455 89.6597 -11.7622 6.01757 0.107816 72.1659 6.51111 -1.25386 16.5417 -10.2695 8.82946 172.526 -2.59754 88.2956 -13.7853 -14.2496 -0.752344 68.1421 -5.03627 1.18567 26.8077 0.0788652 3.07738 0.294813 7.33855 -90.1926 12.1977 0.494851 -0.439487 0.526755 0.475034 -0.460843 -22.0089 0.604055 -0.270444 -1.99624 0.604058 -0.270446 92.0684 -27.5058 -103.473 43.9454 -24.8979 -8.31003 -14.6352 -19.9533 -25.7782 -10.4243 -0.321819 -1.66163 -87.1001 -49.9508 83.0678 -23.7175 27.1846 -13.658 9.62207 2.79881 -11.5708 18.8051 2.24286 8.05576 7.78641 -0.0160139 -0.262731 -10.8775 -0.0805155 1.81894 
7.37731 100.859 26.9664 -132.154 -83.678 -132.303 -173.653 -3.57721 89.6691 -11.75 5.98974 0.0637022 72.185 6.5114 -1.37144 16.2641 -10.2359 8.5099 172.653 -2.32886 88.3689 -13.8443 -14.2068 -0.81247 67.757 -4.7035 1.57223 27.4814 -0.0312662 2.39611 0.29886 7.32702 -90.1859 12.2207 0.505979 -0.427585 0.549802 0.486672 -0.449436 -21.9859 0.611091 -0.255748 -1.97325 0.611094 -0.255745 92.1431 -27.5454 -103.304 43.7675 -25.1797 -8.37647 -14.6161 -19.9154 -25.8561 -10.3499 -0.321893 -1.63209 -87.1455 -49.7931 82.9731 -23.7222 26.1172 -13.9163 9.84082 4.24807 -11.2216 22.8322 2.94843 9.16207 8.20325 -0.0309252 -0.239275 -11.4224 -0.108832 1.82921 
7.40985 100.848 27.0626 -133.512 -83.495 -133.734 -173.792 -3.90071 89.4797 -11.6987 5.3474 0.249838 72.2363 6.41423 -1.68457 16.3101 -9.8861 7.96204 172.451 -2.67281 88.159 -13.7495 -14.0854 -0.775827 68.7519 -5.48043 1.15394 26.0197 0.38465 3.17602 0.302047 7.35036 -90.1809 12.1741 0.514834 -0.418169 0.503146 0.495919 -0.440433 -22.0326 0.616703 -0.244115 -2.01996 0.616702 -0.244116 92.2337 -27.4438 -103.151 43.9245 -25.1952 -8.35611 -14.6372 -20.0518 -25.8796 -10.9697 -0.350789 -1.52164 -87.2725 -49.6551 82.7584 -23.8642 25.1971 -13.9105 10.0355 5.53958 -11.0773 25.8114 3.4775 9.77522 7.94346 -0.182913 -0.491107 -11.02 -0.23901 2.42065 
7.38697 100.831 27.0894 -132.56 -83.573 -132.925 -173.879 -3.85374 89.3354 -11.6081 5.54075 0.241328 72.1574 6.43339 -1.60947 16.7433 -10.0376 8.62822 172.428 -2.43923 88.0467 -13.8884 -14.4845 -0.789179 68.0063 -4.8733 1.56117 27.5415 0.0308639 2.04372 0.304517 7.33828 -90.1822 12.1982 0.519054 -0.421534 0.527257 0.499996 -0.443969 -22.0085 0.621741 -0.246047 -1.99585 0.621738 -0.246048 92.2541 -27.429 -103.113 43.8372 -25.0819 -8.38277 -14.6008 -19.924 -25.8649 -11.122 -0.356741 -1.50897 -87.3338 -49.9294 82.7125 -23.516 24.9536 -14.0174 9.91722 5.65686 -10.8684 27.0479 3.74659 10.1726 7.96985 -0.046409 -0.261235 -10.9605 -0.150498 2.41109 
